<?xml version="1.0" standalone="no"?>
<!DOCTYPE svg PUBLIC "-//W3C//DTD SVG 20010904//EN"
 "http://www.w3.org/TR/2001/REC-SVG-20010904/DTD/svg10.dtd">
<svg version="1.0" xmlns="http://www.w3.org/2000/svg"
 width="30.000000pt" height="30.000000pt" viewBox="0 0 30.000000 30.000000"
 preserveAspectRatio="xMidYMid meet">

<g transform="translate(0.000000,30.000000) scale(0.100000,-0.100000)"
fill="#000000" stroke="none">
<path d="M17 289 c-15 -9 -17 -26 -17 -130 0 -66 5 -129 10 -140 9 -15 22 -19
65 -19 l55 0 0 55 c0 42 -3 55 -15 55 -9 0 -15 9 -15 25 0 16 6 25 15 25 9 0
15 9 15 25 0 36 33 65 75 65 32 0 35 -2 35 -30 0 -25 -4 -30 -25 -30 -16 0
-25 -6 -25 -15 0 -9 9 -15 25 -15 14 0 25 -4 25 -9 0 -23 -14 -41 -31 -41 -16
0 -19 -8 -19 -55 l0 -55 36 0 c71 0 74 6 74 141 0 66 -5 129 -10 140 -10 17
-22 19 -133 19 -67 0 -130 -5 -140 -11z"/>
</g>
</svg>
