<?xml version="1.0" encoding="UTF-8"?>
<svg version="1.1" xmlns="http://www.w3.org/2000/svg" width="30" height="30">
<path d="M0 0 C0.99773438 -0.01546875 1.99546875 -0.0309375 3.0234375 -0.046875 C7.00503644 -0.02552594 10.07559176 0.03235819 13.65625 1.84375 C15.88109265 6.24169476 15.57521946 10.64834451 15.5 15.5 C15.51546875 16.49773438 15.5309375 17.49546875 15.546875 18.5234375 C15.52552594 22.50503644 15.46764181 25.57559176 13.65625 29.15625 C9.25830524 31.38109265 4.85165549 31.07521946 0 31 C-0.99773438 31.01546875 -1.99546875 31.0309375 -3.0234375 31.046875 C-7.00503644 31.02552594 -10.07559176 30.96764181 -13.65625 29.15625 C-15.88109265 24.75830524 -15.57521946 20.35165549 -15.5 15.5 C-15.51546875 14.50226562 -15.5309375 13.50453125 -15.546875 12.4765625 C-15.52552594 8.49496356 -15.46764181 5.42440824 -13.65625 1.84375 C-9.25830524 -0.38109265 -4.85165549 -0.07521946 0 0 Z M-12 6.5 C-12.37950384 9.46132527 -12.51428128 11.98761286 -12.4375 14.9375 C-12.44458984 15.70126953 -12.45167969 16.46503906 -12.45898438 17.25195312 C-12.42249892 20.47670609 -12.20030178 22.99768069 -11 26.0078125 C-7.79915111 28.39594585 -4.38809152 28.03707459 -0.5625 27.9375 C0.20126953 27.94458984 0.96503906 27.95167969 1.75195312 27.95898438 C4.97670609 27.92249892 7.49768069 27.70030178 10.5078125 26.5 C12.89594585 23.29915111 12.53707459 19.88809152 12.4375 16.0625 C12.44458984 15.29873047 12.45167969 14.53496094 12.45898438 13.74804688 C12.42249892 10.52329391 12.20030178 8.00231931 11 4.9921875 C7.79915111 2.60405415 4.38809152 2.96292541 0.5625 3.0625 C-0.20126953 3.05541016 -0.96503906 3.04832031 -1.75195312 3.04101562 C-7.62154823 3.02506683 -7.62154823 3.02506683 -12 6.5 Z " fill="#20233D" transform="translate(15,-0.5)"/>
<path d="M0 0 C4.0743356 0.84881992 5.54405875 2.30225596 8 5.625 C8.625 8.625 8.625 8.625 8 11.625 C5.54405875 14.94774404 4.0743356 16.40118008 0 17.25 C-4.0743356 16.40118008 -5.54405875 14.94774404 -8 11.625 C-8.625 8.625 -8.625 8.625 -8 5.625 C-5.54405875 2.30225596 -4.0743356 0.84881992 0 0 Z M-3.25 5.5625 C-4.11625 6.5834375 -4.11625 6.5834375 -5 7.625 C-3.94525335 11.31960876 -3.94525335 11.31960876 -1.125 13.6875 C1.22616748 13.84165306 1.22616748 13.84165306 3.25 11.6875 C3.8275 11.006875 4.405 10.32625 5 9.625 C3.94525335 5.93039124 3.94525335 5.93039124 1.125 3.5625 C-1.22616748 3.40834694 -1.22616748 3.40834694 -3.25 5.5625 Z " fill="#20233C" transform="translate(15,6.375)"/>
<path d="M0 0 C1.32 0 2.64 0 4 0 C4 1.32 4 2.64 4 4 C2.68 4 1.36 4 0 4 C0 2.68 0 1.36 0 0 Z " fill="#20233C" transform="translate(21,5)"/>
</svg>
