<?xml version="1.0" standalone="no"?>
<!DOCTYPE svg PUBLIC "-//W3C//DTD SVG 20010904//EN"
 "http://www.w3.org/TR/2001/REC-SVG-20010904/DTD/svg10.dtd">
<svg version="1.0" xmlns="http://www.w3.org/2000/svg"
 width="37.000000pt" height="30.000000pt" viewBox="0 0 37.000000 30.000000"
 preserveAspectRatio="xMidYMid meet">

<g transform="translate(0.000000,30.000000) scale(0.100000,-0.100000)"
fill="#000000" stroke="none">
<path d="M206 277 c-14 -15 -26 -35 -26 -47 0 -34 -71 -18 -132 30 l-28 21 0
-33 c0 -19 5 -39 12 -46 9 -9 9 -12 0 -12 -18 0 -15 -27 6 -48 9 -9 16 -25 14
-35 -2 -12 7 -22 30 -31 l33 -15 -35 -14 c-19 -8 -42 -17 -50 -19 -28 -9 62
-30 106 -25 96 10 177 85 190 174 3 27 14 57 23 67 15 18 15 19 -4 12 -16 -6
-18 -5 -7 5 18 19 15 24 -15 26 -16 1 -42 5 -60 8 -26 6 -36 2 -57 -18z"/>
</g>
</svg>
